<?xml version="1.0" standalone="no"?>
<!DOCTYPE svg PUBLIC "-//W3C//DTD SVG 20010904//EN"
 "http://www.w3.org/TR/2001/REC-SVG-20010904/DTD/svg10.dtd">
<svg version="1.0" xmlns="http://www.w3.org/2000/svg"
 width="700.000000pt" height="700.000000pt" viewBox="0 0 700.000000 700.000000"
 preserveAspectRatio="xMidYMid meet">
<metadata>
Created by potrace 1.14, written by Peter Selinger 2001-2017
</metadata>
<g transform="translate(0.000000,700.000000) scale(0.100000,-0.100000)"
fill="#000000" stroke="none">
<path d="M3285 6994 c-22 -2 -89 -9 -150 -14 -1243 -121 -2360 -945 -2853
-2105 -136 -320 -219 -636 -264 -1010 -16 -135 -16 -591 0 -730 64 -544 225
-1015 499 -1465 139 -228 284 -412 487 -618 576 -588 1293 -935 2131 -1034
144 -16 586 -16 735 1 689 78 1331 348 1854 779 127 105 340 316 451 447 450
532 722 1170 807 1890 7 62 13 220 13 365 0 145 -6 303 -13 365 -99 844 -447
1558 -1043 2141 -555 542 -1251 875 -2029 970 -118 14 -539 27 -625 18z m480
-194 c735 -61 1402 -351 1960 -849 552 -494 943 -1225 1049 -1961 129 -893
-95 -1771 -634 -2484 -205 -273 -468 -529 -727 -707 l-41 -29 112 223 c385
763 593 1391 637 1918 47 574 -184 982 -712 1258 -201 105 -461 193 -979 332
-465 125 -675 196 -886 300 -410 200 -1068 670 -1739 1240 -187 158 -197 168
-190 179 12 19 254 163 386 230 381 194 798 313 1214 349 143 12 410 12 550 1z
m-2352 -982 c31 -1090 202 -2005 459 -2454 133 -232 249 -333 553 -484 189
-93 382 -169 751 -293 474 -160 624 -226 819 -355 118 -78 340 -293 461 -447
159 -201 330 -472 475 -750 74 -143 189 -395 189 -415 0 -6 -62 -41 -138 -79
-694 -348 -1470 -440 -2230 -265 -1239 285 -2210 1268 -2485 2514 -141 637
-88 1310 150 1915 187 474 478 898 848 1236 72 65 133 119 136 119 3 0 9 -109
12 -242z m659 -245 c547 -438 1020 -760 1378 -938 236 -118 413 -178 990 -335
364 -99 603 -175 748 -239 327 -141 536 -320 656 -558 191 -382 70 -1104 -340
-2025 -38 -84 -70 -145 -72 -136 -2 9 1 50 7 90 24 169 35 478 23 653 -29 426
-123 699 -311 897 -96 102 -159 142 -426 276 -282 140 -405 194 -793 348 -428
170 -695 304 -877 442 -285 216 -699 787 -1133 1565 -40 71 -72 131 -72 134 0
2 10 -4 23 -14 12 -10 102 -82 199 -160z"/>
</g>
</svg>
